PathFileType	4	(X/Y/Z)	Patient4_TMGait_0pt2_01_left_12.trc.trc
DataRate	CameraRate	NumFrames	NumMarkers	Units	OrigDataRate	OrigDataStartFrame	OrigNumFrames
39.660056657224	39.660056657224	6	33	mm	39.660056657224	36	       141
Frame#	Time	Sacral			L.Shoulder			Chest			R.Shoulder			Neck			R.ASIS			L.ASIS			R.Thigh.Superior			R.Thigh.Lateral			R.Thigh.Inferior			R.Patella			L.Thigh.Superior			L.Thigh.Lateral			L.Thigh.Inferior			L.Patella			L.Shank.Superior			L.Shank.Lateral			L.Shank.Inferior			R.Shank.Superior			R.Shank.Lateral			R.Shank.Inferior			R.Heel			R.Midfoot.Superior			R.Midfoot.Lateral			R.Toe			L.Heel			L.Midfoot.Lateral			L.Midfoot.Superior			L.Toe			L.Elbow			L.Wrist			R.Elbow			R.Wrist			
		X1	Y1	Z1	X2	Y2	Z2	X3	Y3	Z3	X4	Y4	Z4	X5	Y5	Z5	X6	Y6	Z6	X7	Y7	Z7	X8	Y8	Z8	X9	Y9	Z9	X10	Y10	Z10	X11	Y11	Z11	X12	Y12	Z12	X13	Y13	Z13	X14	Y14	Z14	X15	Y15	Z15	X16	Y16	Z16	X17	Y17	Z17	X18	Y18	Z18	X19	Y19	Z19	X20	Y20	Z20	X21	Y21	Z21	X22	Y22	Z22	X23	Y23	Z23	X24	Y24	Z24	X25	Y25	Z25	X26	Y26	Z26	X27	Y27	Z27	X28	Y28	Z28	X29	Y29	Z29	X30	Y30	Z30	X31	Y31	Z31	X32	Y32	Z32	X33	Y33	Z33	

36	27.832500000000	800.872266481475	1009.963438818921	533.702859270779	940.244998361714	1423.054528121481	302.712256380719	1077.820264769470	1359.665639973952	438.846868614202	1035.625933068727	1440.271733100142	622.338571197170	956.532624881142	1491.580855286369	456.854411240268	1044.085958812053	935.035797919218	609.179670672995	984.808954392242	960.673286481431	341.922443342689	1044.618457941444	721.782623605398	575.039600718557	956.276534055460	621.852917537910	647.633858808245	1008.007039590251	560.220786257073	558.154158494051	991.847185325717	468.190677165800	566.520268928150	1057.261938262370	761.726199251512	374.547420221523	985.821461748293	635.759761048079	311.652397362436	1080.240978593286	569.385122235917	373.841635369600	1087.956901318773	500.290355399926	378.940480294958	1067.424936866403	426.892704372651	367.051641870679	988.500414705872	308.027290972206	307.419439995314	1048.436969422741	198.150784498277	375.241987507725	940.657294855255	389.129361255862	580.257035933682	853.958951693351	306.824866690379	654.595308046479	860.974601889964	204.708834279046	590.907073371731	689.039662385857	63.671828773244	583.612036543573	867.250909282938	100.289372397904	602.574686364224	777.844923418540	49.398218814656	649.797428925250	982.764827300592	37.836498418175	622.538602839927	927.896253485093	38.099237535780	403.596172681312	1007.346698486560	36.044114147516	327.973597199009	1088.093902168318	98.183799409102	360.025730863728	1217.840681180025	48.935045612035	340.827938228846	824.201561539700	1086.914121200149	214.265504031829	856.909104459795	827.207339815551	234.244226257597	1258.057221803804	1192.081810249594	702.029269640194	1418.280153061267	1339.569525910848	579.458969307080	
37	27.857714285714	800.411246008408	1010.912591280504	527.377300233715	941.234088601593	1424.090970457571	297.449487083101	1077.845027937618	1360.635388515169	434.507233755503	1034.396270891105	1441.131687539643	617.750802950026	956.483175347903	1492.536911240350	451.782088468224	1043.042497849056	935.947185127351	604.541618294491	985.501891250834	961.335105543970	336.857301517080	1042.998010077972	722.537207103890	571.501206321701	953.978034636588	623.290829042979	644.367703401401	1005.980744844817	560.891207016461	555.606634407659	989.495388677658	468.814894906677	564.425459822573	1056.462769050879	761.537177795286	370.064900863039	984.067968876533	635.697709987212	307.820143326293	1077.887208151244	568.976027588398	370.445573563561	1085.103270874928	499.872406204126	376.083875223789	1064.266551696327	426.465765989386	364.666989341175	984.838363221768	307.637867154119	305.608221028554	1044.050239876949	197.989263257716	374.444626491653	937.878908457811	390.184028656903	578.478861615391	850.626680387972	308.727476577879	653.063539694653	857.416216903903	206.080950107483	590.071098912792	684.694595783627	66.333020481147	583.469214250758	863.223284906282	100.860623778704	602.304464202976	773.364103404813	51.077133276112	649.638653964425	978.039190549703	37.527463896141	622.434818082424	922.910717955755	38.037895393964	403.556439438327	1002.326375183751	36.019049088060	327.887630339829	1083.010361058412	98.259404620435	359.864256482313	1212.807871134025	49.152641663360	340.753161852266	826.278885841395	1088.036696892177	207.126695435601	859.633070281353	828.394936109086	226.812927675423	1256.270005941638	1192.740804630263	698.760832332665	1421.203602908294	1337.285081753759	577.916078009305	
38	27.882928571429	799.905919673330	1011.860018091123	521.126873324514	942.176408362837	1425.163651365521	292.351139852798	1077.787196262053	1361.649349102318	430.344388705040	1033.033502513045	1442.016204144249	613.335019637615	956.316084759316	1493.513907403765	446.894360009941	1041.968034020223	936.884277241974	599.983978421661	986.175111400360	961.990769379963	331.874552548568	1041.455488541006	723.343646025768	567.988040725935	951.815098476295	624.720672875681	641.079563940217	1004.104308057701	561.602957160913	553.003328818133	987.357912255973	469.407148070054	562.273805207724	1055.499914972684	761.251587818315	365.593044623991	982.013436369238	635.613633715405	304.042676062317	1075.204814170040	568.496900823980	367.053263632361	1081.864233213468	499.423609154716	373.218360217372	1060.770521300140	426.047369969803	362.264880124182	980.856749995130	307.223464398847	303.872934994595	1039.499962225987	197.842498409634	373.628627692839	935.258350687929	391.244433927506	576.661183224688	847.471795086278	310.645304379639	651.536780324258	853.977447254883	207.479045639636	589.253292880319	680.398622968212	69.077966835624	583.426783948078	859.280424471799	101.426400890535	602.063016874196	768.947169602842	52.801165307986	649.569203768148	973.344963209747	37.254063896143	622.333233933241	917.861979756735	37.987690613775	403.538931144975	997.241186128899	35.981589380443	327.822871256960	1077.869423707598	98.305669239729	359.699817368785	1207.710806199572	49.329899040090	340.673837879423	828.644354184353	1089.079626103239	200.035891365679	863.327470209997	829.613116283213	219.429357703192	1254.130806992933	1193.104773853831	695.620597944338	1424.245450954021	1334.165416151135	576.722656037351	
39	27.908142857143	799.364688554842	1012.790153088413	514.926266166479	943.097859892740	1426.291228866502	287.438237745905	1077.654599931479	1362.706457751571	426.386811312053	1031.525795739169	1442.905245451635	609.119666942099	956.034471385122	1494.511450033778	442.220214391308	1040.869034198190	937.846469745535	595.497064884435	986.850844875988	962.643472590973	326.964916135867	1040.040907131595	724.195421718418	564.484027830149	949.848505743200	626.117829261328	637.739180060244	1002.466841757229	562.337124379675	550.316065569511	985.534050326914	469.929110325477	560.049801980979	1054.432280731112	760.889054707523	361.160155304379	979.759566624332	635.512980175675	300.326928639841	1072.285681609418	567.962697824160	363.698456640866	1078.342194322453	498.950887076104	370.379836647703	1057.033673992584	425.640898641756	359.877788727728	976.652642041570	306.796015693027	302.225799114535	1034.841476119959	197.700762882936	372.812659058381	932.870049700021	392.286745288004	574.786397551214	844.535964674507	312.584363251057	649.997316893873	850.692493981136	208.900642011154	588.447691943033	676.166975169134	71.937294599925	583.469599265025	855.436036735463	101.983498842921	601.869743488107	764.596161777007	54.593885362879	649.594295226586	968.666510973783	37.019480595000	622.266321120061	912.769851069255	37.949772832770	403.543115014035	992.112519334691	35.937768170759	327.781691983098	1072.700635362276	98.310988084370	359.548352696199	1202.576595364953	49.442411137017	340.595697604469	831.337650744302	1090.073593533613	192.973041169637	868.011396700838	830.900349706040	212.147967978931	1251.610269370603	1193.117695407942	692.601203499020	1427.463917029309	1329.961952320944	575.922698936570	
40	27.933357142857	798.793149158517	1013.677604108493	508.748723242421	944.021038468061	1427.485242783412	282.734734016419	1077.451546724255	1363.796284847699	422.665281190845	1029.859068927750	1443.768867151044	605.134991855776	955.643363739806	1495.521238191632	437.787551362568	1039.747163412861	938.822661048785	591.062193822338	987.542538362768	963.293859080385	322.113382688077	1038.816738761522	725.081625707444	560.954202523955	948.166683034142	627.446364066514	634.302014497334	1001.189007688955	563.068927108982	547.499081876857	984.158943947677	470.334961516188	557.723953966401	1053.321953154852	760.468891838171	356.781384206865	977.413753270536	635.395377086332	296.673641764261	1069.234164310319	567.387754829308	360.407130500902	1074.658362712010	498.457816728790	367.597390116241	1053.165405634345	425.244244307313	357.534942380990	972.333659662625	306.365088224955	300.674973362090	1030.132400969574	197.553275889919	372.015487625017	930.820649828092	393.280216764324	572.823961772830	841.881129253609	314.557020972549	648.405009532055	847.611635851132	210.347609335586	587.630823052022	672.026376478151	74.967228183600	583.546080772741	851.706559803778	102.537311818857	601.735537088751	760.309424841071	56.500450391415	649.693440494908	963.976662640467	36.824014717592	622.273353849572	907.654415627201	37.924511693224	403.567219046352	986.961826208658	35.894830410820	327.765206985081	1067.530732368276	98.270470080286	359.423603482933	1197.430530640505	49.474162902579	340.524315722714	834.412252206423	1091.037860510155	185.930420377148	873.700479560820	832.283878245867	205.025652204171	1248.672454545776	1192.703487518036	689.695602701365	1430.889971056655	1324.382606169358	575.578387401605	
41	27.958571428571	798.191354598077	1014.485045780365	502.570473266227	944.959445554982	1428.743780546319	278.266973455508	1077.176082159515	1364.894564850281	419.210082383187	1028.018395114904	1444.564349601094	601.410848554927	955.148803073895	1496.522874940235	433.621073677713	1038.597573330186	939.787256474243	586.654088252711	988.252133085417	963.936063627223	317.301940910653	1037.856524121148	725.984903885744	557.347613582784	946.883998508003	628.657070770430	630.711217525434	1000.420190511811	563.767999946352	544.490759517416	983.400714740757	470.572940136227	555.252999632142	1052.232751252942	760.008612729070	352.461660904131	975.088916204459	635.252771995760	293.079623820811	1066.167276721797	566.784269737899	357.199004130693	1070.951637915884	497.942704887856	364.893499301285	1049.286234655085	424.847257456260	355.261789227779	968.014612513311	305.936129625566	299.224706430262	1025.430143406267	197.386923652663	371.255342208055	929.247388445773	394.186570486758	570.729471417755	839.589049120980	316.581436264247	646.692986881416	844.800934395277	211.826825300490	586.756746227232	668.017066828044	78.249494526932	583.555553557516	848.110156068745	103.104910763173	601.654058456037	756.080130460870	58.589009923438	649.808047771611	959.235601368831	36.665067184113	622.395035044313	902.533349727103	37.911837372527	403.608740549497	981.807714885971	35.859800703850	327.773288666262	1062.381296560247	98.184801020451	359.336237926025	1192.293775178065	49.415678972705	340.464484923617	837.930336441120	1091.971775991361	178.920290231251	880.406364340130	833.771025532485	198.118626675313	1245.272904450160	1191.760542562610	686.896467012354	1434.503811360378	1317.094794535466	575.764008444564	
